<?xml version="1.0" encoding="utf-8"?>
<!-- Generator: Adobe Illustrator 17.1.0, SVG Export Plug-In . SVG Version: 6.00 Build 0)  -->
<!DOCTYPE svg PUBLIC "-//W3C//DTD SVG 1.1//EN" "http://www.w3.org/Graphics/SVG/1.1/DTD/svg11.dtd">
<svg version="1.1" id="Layer_1" xmlns="http://www.w3.org/2000/svg" xmlns:xlink="http://www.w3.org/1999/xlink" x="0px" y="0px"
	 viewBox="0 0 341.5 286.4" enable-background="new 0 0 341.5 286.4" xml:space="preserve">
<polygon fill="none" stroke="#FFFFFF" stroke-width="2.75" stroke-miterlimit="10" points="22.8,169.1 88.7,18.1 154.6,169.1 "/>
<rect x="196.8" y="18.7" fill="none" stroke="#FFFFFF" stroke-width="2.75" stroke-miterlimit="10" width="54.7" height="150.4"/>
<rect x="263.6" y="18.7" fill="none" stroke="#FFFFFF" stroke-width="2.75" stroke-miterlimit="10" width="54.7" height="150.4"/>
<rect x="21.9" y="223.3" fill="none" width="309.3" height="63"/>
<text transform="matrix(1 0 0 1 21.9306 245.0192)" fill="#FFFFFF" font-family="'JosefinSans-Bold'" font-size="29" letter-spacing="3">AMELI</text>
<text transform="matrix(1 0 0 1 133.5506 245.0192)" fill="#FFFFFF" font-family="'JosefinSans-Bold'" font-size="29" letter-spacing="9">A</text>
<text transform="matrix(1 0 0 1 165.4516 245.0192)" fill="#FFFFFF" font-family="'JosefinSans-Bold'" font-size="29" letter-spacing="4"> </text>
<text transform="matrix(1 0 0 1 179.9506 245.0192)" fill="#FFFFFF" font-family="'JosefinSans-Bold'" font-size="29" letter-spacing="3">H</text>
<text transform="matrix(1 0 0 1 204.3096 245.0192)" fill="#FFFFFF" font-family="'JosefinSans-Bold'" font-size="29" letter-spacing="3">U</text>
<text transform="matrix(1 0 0 1 227.8586 245.0192)" fill="#FFFFFF" font-family="'JosefinSans-Bold'" font-size="29" letter-spacing="3">D</text>
<text transform="matrix(1 0 0 1 250.8266 245.0192)" fill="#FFFFFF" font-family="'JosefinSans-Bold'" font-size="29" letter-spacing="2">SO</text>
<text transform="matrix(1 0 0 1 298.4726 245.0192)" fill="#FFFFFF" font-family="'JosefinSans-Bold'" font-size="29" letter-spacing="3">N</text>
<line fill="none" stroke="#FFFFFF" stroke-width="2.7955" stroke-miterlimit="10" x1="21" y1="210.7" x2="320.3" y2="210.7"/>
<line fill="none" stroke="#FFFFFF" stroke-width="2.7955" stroke-miterlimit="10" x1="21" y1="258.8" x2="320.3" y2="258.8"/>
</svg>
